<svg width="12" height="12" viewBox="0 0 12 12" fill="none" xmlns="http://www.w3.org/2000/svg">
<path fill-rule="evenodd" clip-rule="evenodd" d="M0.970279 0.968875C1.03995 0.899031 1.12271 0.843616 1.21383 0.805806C1.30495 0.767997 1.40263 0.748535 1.50128 0.748535C1.59993 0.748535 1.69761 0.767997 1.78873 0.805806C1.87985 0.843616 1.96261 0.899031 2.03228 0.968875L6.00128 4.93938L9.97028 0.968875C10.04 0.899143 10.1228 0.843829 10.2139 0.80609C10.305 0.768352 10.4027 0.748928 10.5013 0.748928C10.5999 0.748928 10.6975 0.768352 10.7887 0.80609C10.8798 0.843829 10.9625 0.899143 11.0323 0.968875C11.102 1.03861 11.1573 1.12139 11.1951 1.2125C11.2328 1.30361 11.2522 1.40126 11.2522 1.49988C11.2522 1.59849 11.2328 1.69614 11.1951 1.78725C11.1573 1.87836 11.102 1.96114 11.0323 2.03088L7.06178 5.99988L11.0323 9.96887C11.102 10.0386 11.1573 10.1214 11.1951 10.2125C11.2328 10.3036 11.2522 10.4013 11.2522 10.4999C11.2522 10.5985 11.2328 10.6961 11.1951 10.7873C11.1573 10.8784 11.102 10.9611 11.0323 11.0309C10.9625 11.1006 10.8798 11.1559 10.7887 11.1937C10.6975 11.2314 10.5999 11.2508 10.5013 11.2508C10.4027 11.2508 10.305 11.2314 10.2139 11.1937C10.1228 11.1559 10.04 11.1006 9.97028 11.0309L6.00128 7.06037L2.03228 11.0309C1.96255 11.1006 1.87976 11.1559 1.78865 11.1937C1.69755 11.2314 1.5999 11.2508 1.50128 11.2508C1.40266 11.2508 1.30501 11.2314 1.2139 11.1937C1.12279 11.1559 1.04001 11.1006 0.970279 11.0309C0.900547 10.9611 0.845233 10.8784 0.807494 10.7873C0.769756 10.6961 0.750332 10.5985 0.750332 10.4999C0.750332 10.4013 0.769756 10.3036 0.807494 10.2125C0.845233 10.1214 0.900547 10.0386 0.970279 9.96887L4.94078 5.99988L0.970279 2.03088C0.900434 1.96121 0.84502 1.87844 0.80721 1.78733C0.769401 1.69621 0.749939 1.59853 0.749939 1.49988C0.749939 1.40122 0.769401 1.30354 0.80721 1.21242C0.84502 1.12131 0.900434 1.03854 0.970279 0.968875Z" fill="#3074B8"/>
</svg>
