<svg width="20" height="17" viewBox="0 0 20 17" fill="none" xmlns="http://www.w3.org/2000/svg">
<path fill-rule="evenodd" clip-rule="evenodd" d="M0.375 15.625C0.375 15.3929 0.467187 15.1704 0.631282 15.0063C0.795376 14.8422 1.01794 14.75 1.25 14.75H18.75C18.9821 14.75 19.2046 14.8422 19.3687 15.0063C19.5328 15.1704 19.625 15.3929 19.625 15.625C19.625 15.8571 19.5328 16.0796 19.3687 16.2437C19.2046 16.4078 18.9821 16.5 18.75 16.5H1.25C1.01794 16.5 0.795376 16.4078 0.631282 16.2437C0.467187 16.0796 0.375 15.8571 0.375 15.625ZM0.375 8.625C0.375 8.39294 0.467187 8.17038 0.631282 8.00628C0.795376 7.84219 1.01794 7.75 1.25 7.75H18.75C18.9821 7.75 19.2046 7.84219 19.3687 8.00628C19.5328 8.17038 19.625 8.39294 19.625 8.625C19.625 8.85706 19.5328 9.07962 19.3687 9.24372C19.2046 9.40781 18.9821 9.5 18.75 9.5H1.25C1.01794 9.5 0.795376 9.40781 0.631282 9.24372C0.467187 9.07962 0.375 8.85706 0.375 8.625ZM0.375 1.625C0.375 1.39294 0.467187 1.17038 0.631282 1.00628C0.795376 0.842187 1.01794 0.75 1.25 0.75H18.75C18.9821 0.75 19.2046 0.842187 19.3687 1.00628C19.5328 1.17038 19.625 1.39294 19.625 1.625C19.625 1.85706 19.5328 2.07962 19.3687 2.24372C19.2046 2.40781 18.9821 2.5 18.75 2.5H1.25C1.01794 2.5 0.795376 2.40781 0.631282 2.24372C0.467187 2.07962 0.375 1.85706 0.375 1.625Z" fill="#3074B8"/>
</svg>
